<?xml version="1.0" standalone="no"?><!-- Generator: Gravit.io -->
<svg xmlns="http://www.w3.org/2000/svg" style="isolation:isolate" width="32" height="32"><line x1="28" y1="4" x2="4" y2="28" stroke-width="2" stroke="rgb(208,208,208)" stroke-linejoin="miter" stroke-linecap="round"/><path d=" M 28 24 L 24 27.999999999999996 L 14 18.000000000000004 L 18 14 L 28 24 Z " fill="rgb(208,208,208)" stroke="none"/><mask id="_mask_exu3VHnyfc4gOXUbr8lietOk3YnQVjuZ"><path d=" M 28 24 L 24 27.999999999999996 L 14 18.000000000000004 L 18 14 L 28 24 Z " fill="white" stroke="none"/></mask><path d=" M 28 24 L 24 27.999999999999996 L 14 18.000000000000004 L 18 14 L 28 24 Z " fill="none" stroke="none" stroke-width="4" mask="url(#_mask_exu3VHnyfc4gOXUbr8lietOk3YnQVjuZ)"/><rect x="8" y="8" width="4" height="4" transform="matrix(1,0,0,1,0,0)" fill="rgb(208,208,208)" stroke="none"/><mask id="_mask_bmrUsJHyAm6nNAOoV6JYPHVcvLW2LPTg"><rect x="8" y="8" width="4" height="4" transform="matrix(1,0,0,1,0,0)" fill="white" stroke="none"/></mask><rect x="8" y="8" width="4" height="4" transform="matrix(1,0,0,1,0,0)" fill="none" stroke="none" stroke-width="4" mask="url(#_mask_bmrUsJHyAm6nNAOoV6JYPHVcvLW2LPTg)"/><rect x="4" y="4" width="4" height="4" transform="matrix(1,0,0,1,0,0)" fill="rgb(208,208,208)" stroke="none"/><mask id="_mask_cF4RCc9vHfAHB6A87oGHJqGmkdk78hxF"><rect x="4" y="4" width="4" height="4" transform="matrix(1,0,0,1,0,0)" fill="white" stroke="none"/></mask><rect x="4" y="4" width="4" height="4" transform="matrix(1,0,0,1,0,0)" fill="none" stroke="none" stroke-width="4" mask="url(#_mask_cF4RCc9vHfAHB6A87oGHJqGmkdk78hxF)"/><rect x="12" y="12" width="4" height="4" transform="matrix(1,0,0,1,0,0)" fill="rgb(208,208,208)" stroke="none"/><mask id="_mask_8iGthiHnYnbuvVsYjbNNL5E5pve6qAAn"><rect x="12" y="12" width="4" height="4" transform="matrix(1,0,0,1,0,0)" fill="white" stroke="none"/></mask><rect x="12" y="12" width="4" height="4" transform="matrix(1,0,0,1,0,0)" fill="none" stroke="none" stroke-width="4" mask="url(#_mask_8iGthiHnYnbuvVsYjbNNL5E5pve6qAAn)"/></svg>